Coordinates
version=1
nRows=34
nColumns=33
inDegrees=yes

Units are S.I. units (second, meters, Newtons, ...)
Angles are in degrees.

endheader
time	ground_thorax_rot_x	ground_thorax_rot_y	ground_thorax_rot_z	ground_thorax_tx	ground_thorax_ty	ground_thorax_tz	clav_prot_r	clav_elev_r	scapula_abduction_r	scapula_elevation_r	scapula_upward_rot_r	scapula_winging_r	shoulder_elv_r	plane_of_elev_r	axial_rot_r	elbow_flexion_r	pro_sup_r	wrist_flex_r	wrist_dev_r	clav_prot_l	clav_elev_l	scapula_abduction_l	scapula_elevation_l	scapula_upward_rot_l	scapula_winging_l	shoulder_elv_l	plane_of_elev_l	axial_rot_l	elbow_flexion_l	pro_sup_l	wrist_flex_l	wrist_dev_l	
4.6400	34.705196	6.139976	10.777044	-84.520199	786.431706	9.043006	9.538716	35.262804	45.000000	33.167490	-5.341949	-1171.819269	-2824.085701	27.135978	65.998760	732.121145	24.609141	15.764256	10.722629	6.344220	-45.000000	-45.000000	45.000000	-29.047257	-636.689292	-3698.189908	134.475169	-180.000000	727.458231	40.131166	8.861430	-19.432756	
4.6500	36.075897	6.928106	10.330465	-81.915966	782.595889	12.976575	9.937300	36.158472	45.000000	33.800519	-5.137251	-1172.038435	-2823.773428	27.383398	64.579444	731.012970	24.099360	16.098191	11.093653	6.262406	-45.000000	-45.000000	45.000000	-29.685504	-637.330937	-3698.436081	134.513565	-180.000000	727.706338	39.590839	9.037463	-19.474595	
4.6600	37.504826	7.761549	9.870479	-79.229203	778.576072	17.082136	10.353720	37.096351	45.000000	34.471718	-4.932745	-1172.273466	-2823.444072	27.644127	63.087381	729.847944	23.552859	16.447414	11.484956	6.185638	-45.000000	-45.000000	45.000000	-30.373052	-637.999065	-3698.692402	134.556603	-180.000000	727.965546	38.985753	9.226809	-19.514334	
4.6700	38.289640	8.229699	9.633407	-77.879584	776.387506	19.274384	10.563121	37.602568	45.000000	34.838307	-4.834088	-1172.420575	-2823.278338	27.787831	62.248288	729.206463	23.221200	16.651934	11.690402	6.172027	-45.000000	-44.999999	45.000000	-30.817875	-638.360860	-3698.810534	134.557357	-180.000000	728.118605	38.560560	9.345420	-19.531361	
4.6800	38.731085	8.505279	9.514650	-77.271690	775.170357	20.446756	10.673544	37.884757	45.000000	35.044811	-4.803558	-1172.511096	-2823.190454	27.866334	61.764225	728.849187	23.015616	16.768622	11.811571	6.181674	-45.000000	-44.999999	45.000000	-31.106863	-638.558363	-3698.872183	134.553126	-180.000000	728.205829	38.224086	9.425749	-19.532297	
4.6900	38.888877	8.616297	9.482687	-77.297763	774.762765	20.769642	10.696164	37.980723	45.000000	35.119240	-4.817896	-1172.558903	-2823.169017	27.894038	61.566238	728.724936	22.920853	16.822490	11.851870	6.210817	-45.000000	-44.999998	45.000000	-31.277890	-638.618307	-3698.873878	134.529417	-180.000000	728.244033	37.973378	9.477413	-19.525180	
4.7000	38.916925	8.656879	9.492307	-77.642526	774.723732	20.706957	10.692432	37.999551	45.000000	35.134477	-4.864432	-1172.580252	-2823.167983	27.893828	61.507293	728.714625	22.896228	16.830804	11.871490	6.235138	-45.000000	-44.999996	45.000000	-31.358547	-638.610998	-3698.872277	134.519934	-180.000000	728.250273	37.777360	9.509170	-19.510732	
4.7100	38.949400	8.691937	9.482830	-78.041362	774.684952	20.643887	10.694191	38.025370	45.000000	35.155357	-4.906301	-1172.599418	-2823.158823	27.898397	61.437653	728.705515	22.890098	16.843720	11.888628	6.249997	-45.000000	-44.999993	45.000000	-31.431555	-638.597234	-3698.866770	134.504610	-180.000000	728.257465	37.609976	9.542726	-19.502585	
4.7200	38.982161	8.735576	9.477307	-78.483699	774.648229	20.581722	10.703187	38.060365	45.000000	35.180922	-4.952177	-1172.621587	-2823.143074	27.900760	61.358805	728.700578	22.898388	16.841420	11.918249	6.255743	-45.000000	-44.999988	45.000000	-31.483579	-638.574611	-3698.881189	134.507304	-180.000000	728.257604	37.479269	9.565001	-19.492326	
4.7300	39.017453	8.779616	9.458734	-78.964001	774.613344	20.518062	10.711771	38.099124	45.000000	35.214358	-4.992084	-1172.653139	-2823.127624	27.912701	61.250595	728.685636	22.897400	16.849236	11.934034	6.266938	-45.000000	-44.999979	45.000000	-31.559374	-638.542283	-3698.875861	134.493605	-180.000000	728.265139	37.379691	9.589036	-19.490445	
4.7400	39.051643	8.839087	9.451432	-79.473842	774.581266	20.451297	10.723703	38.145680	45.000000	35.256799	-5.042965	-1172.688258	-2823.106691	27.922502	61.123677	728.671602	22.881073	16.843239	11.968040	6.279183	-45.000000	-44.999962	45.000000	-31.632448	-638.499609	-3698.885817	134.497520	-180.000000	728.268292	37.301826	9.600237	-19.483867	
4.7500	39.089069	8.892977	9.423487	-80.006502	774.553198	20.380371	10.740434	38.195128	45.000000	35.308406	-5.095902	-1172.720487	-2823.083236	27.944827	60.971735	728.649677	22.837694	16.849563	11.990269	6.296348	-45.000000	-44.999931	45.000000	-31.725170	-638.449343	-3698.871022	134.484879	-180.000000	728.278259	37.243030	9.617297	-19.486206	
4.7600	39.124399	8.964036	9.408252	-80.557390	774.530259	20.304480	10.756799	38.252593	45.000000	35.368653	-5.158370	-1172.750598	-2823.054519	27.959889	60.809022	728.631819	22.772652	16.842893	12.035983	6.313206	-45.000000	-44.999877	45.000000	-31.811777	-638.392064	-3698.873992	134.491622	-180.000000	728.283347	37.197507	9.619882	-19.481440	
4.7700	39.160069	9.030629	9.371314	-81.124066	774.513594	20.223452	10.780076	38.311899	45.000000	35.435462	-5.223137	-1172.778799	-2823.028161	27.984804	60.636298	728.604904	22.682898	16.847922	12.059692	6.334471	-45.000000	-44.999779	45.000000	-31.914672	-638.329274	-3698.848453	134.480493	-180.000000	728.296941	37.164850	9.630151	-19.486219	
4.7800	39.193210	9.115304	9.349393	-81.705632	774.504285	20.137298	10.800788	38.380152	45.000000	35.510708	-5.295002	-1172.804294	-2822.995804	27.997228	60.473334	728.587775	22.582195	16.841518	12.107453	6.354089	-45.000000	-44.999605	45.000000	-32.009045	-638.259927	-3698.843336	134.489101	-180.000000	728.308847	37.141130	9.624131	-19.483228	
4.7900	39.227424	9.189581	9.302995	-82.302557	774.503649	20.046341	10.828478	38.448878	45.000000	35.590530	-5.364508	-1172.832314	-2822.969273	28.021281	60.318473	728.562351	22.470882	16.846892	12.120529	6.377876	-45.000000	-44.999292	45.000000	-32.122212	-638.188511	-3698.806968	134.476111	-180.000000	728.331782	37.128247	9.628315	-19.491725	
4.8000	39.260347	9.280328	9.274851	-82.916248	774.513216	19.951001	10.851030	38.527734	45.000000	35.677271	-5.438150	-1172.857867	-2822.934947	28.028675	60.189799	728.550920	22.364696	16.842394	12.160850	6.399206	-45.000000	-44.998731	45.000000	-32.226243	-638.110979	-3698.795532	134.483984	-180.000000	728.355233	37.122460	9.614716	-19.492093	
4.8100	39.295807	9.358172	9.220135	-83.549060	774.534613	19.851710	10.880441	38.605480	45.000000	35.767187	-5.507204	-1172.889687	-2822.909791	28.048586	60.076445	728.530929	22.260105	16.849000	12.158899	6.424803	-45.000000	-44.997730	45.000000	-32.351040	-638.033087	-3698.749420	134.468470	-180.000000	728.392163	37.126285	9.612625	-19.505340	
4.8200	39.331695	9.449525	9.184010	-84.203748	774.569422	19.748860	10.903578	38.694045	45.000000	35.863930	-5.579516	-1172.918206	-2822.875682	28.052639	59.993481	728.527796	22.169777	16.848107	12.188235	6.447630	-45.000000	-44.995925	45.000000	-32.467256	-637.947467	-3698.728871	134.473529	-180.000000	728.431694	37.135477	9.592587	-19.510819	
4.8300	39.372975	9.523571	9.120056	-84.883608	774.619155	19.642700	10.934328	38.779821	45.000000	35.963075	-5.644089	-1172.956884	-2822.852945	28.074937	59.922447	728.514411	22.084937	16.856702	12.168247	6.474055	-45.000000	-44.992726	45.000000	-32.608939	-637.863687	-3698.671937	134.453220	-180.000000	728.487042	37.152487	9.585916	-19.530862	
4.8400	39.417649	9.612827	9.080492	-85.591891	774.685242	19.533424	10.958199	38.877082	45.000000	36.070111	-5.714732	-1172.988771	-2822.816298	28.082430	59.880110	728.520331	22.015725	16.860042	12.187372	6.496535	-45.000000	-44.986897	45.000000	-32.743518	-637.771257	-3698.644209	134.454647	-180.000000	728.547388	37.171809	9.559913	-19.542789	
4.8500	39.471513	9.683246	9.014351	-86.331989	774.769124	19.421157	10.992767	38.968902	45.000000	36.181482	-5.776983	-1173.034324	-2822.793539	28.117413	59.840018	728.514439	21.948080	16.870597	12.147888	6.521587	-45.000000	-44.976733	45.000000	-32.912256	-637.682784	-3698.575212	134.428718	-180.000000	728.626647	37.195826	9.549516	-19.571404	
4.8600	39.525729	9.773483	8.978407	-87.107064	774.872370	19.306032	11.023104	39.070712	45.000000	36.299834	-5.859865	-1173.069108	-2822.755000	28.135246	59.823532	728.526301	21.891511	16.877913	12.152175	6.541278	-45.000000	-44.957751	45.000000	-33.080887	-637.590232	-3698.528205	134.422761	-180.000000	728.709086	37.218781	9.520186	-19.591095	
4.8700	39.588015	9.854079	8.926502	-87.920476	774.996714	19.188009	11.064177	39.167516	45.000000	36.427101	-5.948889	-1173.112879	-2822.727169	28.165743	59.802950	728.529292	21.830250	16.892689	12.111410	6.558829	-45.000000	-44.927147	45.000000	-33.286998	-637.505685	-3698.443437	134.392468	-180.000000	728.807293	37.242796	9.503071	-19.624236	
4.8800	39.650176	9.959524	8.918879	-88.775306	775.143843	19.066697	11.099895	39.278477	44.999999	36.561541	-6.073952	-1173.136768	-2822.675731	28.163759	59.801995	728.553734	21.772517	16.907232	12.136522	6.563999	-45.000000	-44.869557	45.000000	-33.498296	-637.422682	-3698.386721	134.389416	-180.000000	728.903543	37.262705	9.462391	-19.644158	
4.8900	39.714541	10.059734	8.915119	-89.674485	775.314820	18.940717	11.145816	39.372482	44.999999	36.701352	-6.216664	-1173.164210	-2822.631130	28.168880	59.789856	728.577041	21.699395	16.928917	12.127495	6.562295	-45.000000	-44.780839	45.000000	-33.756019	-637.344345	-3698.294959	134.368670	-180.000000	729.012889	37.282290	9.429757	-19.674791	
4.9000	39.780434	10.174400	8.949802	-90.620139	775.509466	18.807237	11.193976	39.489394	44.999998	36.851897	-6.402715	-1173.175698	-2822.575224	28.159139	59.780438	728.614978	21.616909	16.948876	12.167473	6.544680	-45.000000	-44.643079	45.000000	-34.043270	-637.277628	-3698.210214	134.362705	-180.000000	729.122126	37.300746	9.378760	-19.697179	
4.9100	39.845666	10.284766	8.996081	-91.612768	775.724680	18.660234	11.259118	39.581769	44.999997	37.001924	-6.608158	-1173.190168	-2822.518154	28.164764	59.747512	728.650866	21.510851	16.974497	12.169594	6.513383	-45.000000	-44.467084	45.000000	-34.390806	-637.211159	-3698.086635	134.334620	-180.000000	729.247952	37.326557	9.332911	-19.732282	
4.9200	39.919216	10.397665	9.071925	-92.650592	775.954270	18.490355	11.330706	39.703264	44.999995	37.168379	-6.855785	-1173.193939	-2822.455609	28.184288	59.703419	728.691000	21.389518	16.994991	12.198153	6.469067	-45.000000	-44.241497	45.000000	-34.778677	-637.155588	-3697.964814	134.311386	-180.000000	729.378822	37.368494	9.270727	-19.767447	
4.9300	39.986062	10.514540	9.177205	-93.725705	776.181304	18.276816	11.427153	39.802780	44.999990	37.341959	-7.139590	-1173.191475	-2822.390828	28.216737	59.626561	728.730939	21.243348	17.020955	12.187144	6.417626	-45.000000	-43.988011	45.000000	-35.227176	-637.090724	-3697.812649	134.273881	-180.000000	729.525036	37.455032	9.200540	-19.817781	
4.9400	40.050085	10.641479	9.327484	-94.826742	776.385488	17.994479	11.542645	39.934475	44.999982	37.542574	-7.500353	-1173.172112	-2822.330358	28.259563	59.521604	728.774869	21.079760	17.043793	12.188433	6.363234	-45.000000	-43.699178	45.000000	-35.719903	-637.028144	-3697.657465	134.242734	-180.000000	729.670385	37.616924	9.102969	-19.876365	
4.9500	40.072581	10.784568	9.551737	-95.916920	776.497081	17.565758	11.685610	40.027605	44.999968	37.745208	-7.951167	-1173.128281	-2822.258200	28.299457	59.379575	728.829760	20.894880	17.075492	12.178362	6.303715	-45.000000	-43.392157	45.000000	-36.254226	-636.927759	-3697.481448	134.209033	-180.000000	729.806071	37.965651	8.958713	-19.959869	
4.9600	40.056001	10.921955	9.842890	-96.969806	776.479207	16.943492	11.841178	40.129265	44.999943	37.963780	-8.506364	-1173.060628	-2822.189903	28.360262	59.208973	728.893943	20.697091	17.107517	12.183285	6.245916	-45.000000	-43.058959	45.000000	-36.796633	-636.795045	-3697.298355	134.179392	-180.000000	729.914016	38.556407	8.759613	-20.074105	
4.9700	39.880203	11.067431	10.311077	-97.824056	776.014243	15.786974	12.030883	40.155622	44.999899	38.159645	-9.270754	-1172.937292	-2822.100302	28.437329	58.997581	728.982616	20.474661	17.156814	12.188266	6.179842	-45.000000	-42.694267	45.000000	-37.355779	-636.547711	-3697.061714	134.144505	-180.000000	729.945766	39.894419	8.390120	-20.278900	
